<svg width="288" height="149" viewBox="0 0 288 149" fill="none" xmlns="http://www.w3.org/2000/svg">
<path d="M-4.86821e-05 147.196L0.195952 144.452L10.388 143.08C11.6946 142.949 12.4786 142.1 12.74 140.532H12.936V16.66H12.74C12.4786 14.9613 11.6946 14.0467 10.388 13.916L0.195952 12.936L-4.86821e-05 9.99599L39.396 9.79999C39.396 9.93066 39.4613 10.9107 39.592 12.74L26.264 13.916V143.276L39.592 144.06C39.592 144.191 39.5266 145.171 39.396 147L-4.86821e-05 147.196ZM52.2768 147.196L52.4728 144.452L62.6648 143.08C63.8408 142.949 64.4288 142.035 64.4288 140.336V55.468C64.1675 54.4227 63.7755 53.9 63.2528 53.9L51.2968 53.508L51.4928 50.764C59.7248 49.588 65.2782 49 68.1528 49C73.3795 49 76.3195 51.2867 76.9728 55.86H77.1688V59.976C87.8835 52.6587 98.1408 48.804 107.941 48.412C117.479 48.412 124.731 50.3067 129.697 54.096C131.918 55.7947 133.878 58.4733 135.577 62.132C137.406 65.66 138.321 69.9067 138.321 74.872V143.08L153.021 144.06C153.021 144.191 152.955 145.171 152.825 147L113.625 147.196C113.625 146.02 113.69 145.105 113.821 144.452L124.013 143.08C125.058 142.949 125.581 142.035 125.581 140.336V79.772C125.581 74.5453 124.862 70.1027 123.425 66.444C122.118 62.7853 120.615 60.1067 118.917 58.408C117.218 56.7093 115.127 55.4027 112.645 54.488C109.77 53.4427 106.765 52.92 103.629 52.92C95.7888 53.0507 86.9688 56.1213 77.1688 62.132V143.08L91.8688 144.06C91.8688 144.191 91.8035 145.171 91.6728 147L52.2768 147.196ZM166.018 147.196L166.214 144.452L176.406 143.08C177.321 142.949 177.909 142.296 178.17 141.12V7.05599C178.17 5.61866 177.778 4.9 176.994 4.9L165.038 4.50799L165.234 1.76399C173.466 0.587989 179.085 -1.16825e-05 182.09 -1.16825e-05C185.226 -1.16825e-05 187.447 0.849322 188.754 2.54799C190.191 4.24666 190.91 6.07599 190.91 8.03599V143.08L205.61 144.06C205.61 144.191 205.545 145.171 205.414 147L166.018 147.196ZM259.51 144.06C259.51 144.191 259.445 145.171 259.314 147H234.618L190.91 94.864L224.622 55.86C224.622 54.1613 224.099 53.2467 223.054 53.116L212.862 51.744C212.731 51.0907 212.666 50.176 212.666 49L253.826 49.196C253.826 49.3267 253.891 50.3067 254.022 52.136L231.678 53.508L198.75 89.376L245.986 143.08L259.51 144.06ZM274.02 141.316C274.02 138.833 274.608 136.873 275.784 135.436C277.091 133.999 278.79 133.28 280.88 133.28C285.454 133.28 287.74 135.959 287.74 141.316C287.74 143.537 287.087 145.301 285.78 146.608C284.474 147.915 282.84 148.568 280.88 148.568C276.307 148.568 274.02 146.151 274.02 141.316Z" fill="black"/>
</svg>
