<svg width="610" height="311" viewBox="0 0 610 311" fill="none" xmlns="http://www.w3.org/2000/svg">
<g opacity="0.4">
<path opacity="0.5" d="M22.8759 215.106L25.7622 228.685C35.75 245.512 46.2981 261.17 58.5316 272.205C90.0954 300.703 120.994 293.893 145.561 271.238C158.406 259.396 169.155 242.821 180.606 228.062C196.445 207.639 212.187 180.055 233.269 172.28C249.858 166.195 268.443 173.259 285.555 189.497C305.18 208.118 326.279 236.497 347.779 241.802C368.83 247.013 384.942 227.897 399.557 209C414.172 190.103 427.901 167.966 446.866 160.299C473.981 149.284 504.493 168.589 533.651 176.718C549.481 181.127 562.616 176.1 573.374 161.542C581.97 149.939 591.106 133.598 593.002 113.168L589.088 94.7538L22.8759 215.106Z" fill="#6D7E94"/>
<path d="M22.8759 215.106L23.7913 219.412C97.7441 246.362 171.218 240.594 236.961 203.635C254.44 193.811 270.361 180.45 288.216 171.586C312.5 159.524 339.177 170.539 366.052 183.343C395.889 197.555 424.101 205.965 451.635 195.924C488.17 182.562 519.288 144.999 546.167 108.026L545.323 104.056L22.8759 215.106Z" fill="#C7C7C7" fill-opacity="0.2"/>
<path opacity="0.25" d="M26.9789 214.234L35.4389 254.035C61.8821 268.365 89.8423 271.381 114.567 262.378C146.544 250.755 172.34 220.164 204.584 209.545C238.375 198.444 276.78 209.368 313.238 218.136C348.976 226.716 382.568 225.759 413.717 208.534C429.554 199.775 443.176 186.24 457.282 172.907C495.049 137.209 545.724 91.1293 598.678 139.868L589.088 94.7538L26.9789 214.234Z" fill="#6120FF" fill-opacity="0.3"/>
<path opacity="0.25" d="M24.2436 214.815L15.7944 175.065C34.1284 151.244 58.4467 137.126 84.6948 135.29C118.633 132.896 154.635 150.32 188.41 146.901C223.794 143.293 254.44 117.716 284.184 94.8974C313.346 72.5435 344.426 59.7624 379.885 62.8161C397.913 64.3691 415.86 71.1809 434.167 77.6111C483.182 94.8272 548.208 116.269 576.776 50.2784L586.353 95.3354L24.2436 214.815Z" fill="#6120FF" fill-opacity="0.3"/>
<path opacity="0.5" d="M20.1406 215.687L17.2455 202.067C19.514 182.578 22.7705 163.931 29.4494 148.835C46.6715 109.86 77.6691 103.514 109.338 114.269C125.894 119.889 142.465 130.701 158.936 139.563C181.723 151.827 207.338 170.693 229.762 169.231C247.393 168.05 261.491 154.005 270.507 132.154C280.848 107.094 288.559 72.4915 306.037 58.8721C323.142 45.5208 345.646 56.4765 366.694 67.8409C387.741 79.2053 409.299 93.9007 429.745 93.2015C458.999 92.2506 479.005 62.1295 502.327 42.8019C514.991 32.3126 529.036 31.5692 544.793 40.5285C557.371 47.6604 572.373 58.9141 582.427 76.8651L586.353 95.3353L20.1406 215.687Z" fill="#627083" fill-opacity="0.8"/>
</g>
</svg>
