<svg width="21" height="20" viewBox="0 0 21 20" fill="none" xmlns="http://www.w3.org/2000/svg">
<path d="M17.0773 0.568359C17.8354 -0.189663 19.0653 -0.189555 19.8234 0.568359C20.5814 1.32645 20.5815 2.55642 19.8234 3.31445L12.9416 10.1953L18.7189 15.9727C19.4768 16.7306 19.4767 17.9607 18.7189 18.7188C17.9609 19.4768 16.7309 19.4768 15.9728 18.7188L10.1955 12.9414L4.41815 18.7188C3.66009 19.4764 2.43099 19.4766 1.67303 18.7188C0.915121 17.9607 0.915012 16.7307 1.67303 15.9727L7.4494 10.1953L0.568542 3.31445C-0.189534 2.55638 -0.189534 1.32644 0.568542 0.568359C1.32655 -0.189335 2.55566 -0.189339 3.31366 0.568359L10.1955 7.44922L17.0773 0.568359Z" fill="#961010"/>
</svg>
