<svg width="367" height="91" viewBox="0 0 367 91" fill="none" xmlns="http://www.w3.org/2000/svg">
<path d="M232.474 72.4757C233.448 72.4757 234.349 72.6536 235.178 73.0108C236.022 73.3682 236.713 73.8964 237.249 74.5948V72.5968H239.466V83.7559C239.466 86.0133 238.906 87.6781 237.785 88.7501C236.664 89.8383 234.991 90.3829 232.766 90.3829C231.548 90.3829 230.387 90.2122 229.282 89.8712C228.178 89.5463 227.284 89.0753 226.602 88.4581L227.723 86.6544C228.324 87.1741 229.062 87.5808 229.939 87.8731C230.833 88.1817 231.75 88.336 232.692 88.336C234.203 88.336 235.316 87.9784 236.03 87.2637C236.761 86.5491 237.127 85.4609 237.127 83.9991V82.9757C236.575 83.6416 235.892 84.1453 235.08 84.4864C234.284 84.8112 233.416 84.9737 232.474 84.9737C231.239 84.9737 230.118 84.7141 229.111 84.1944C228.121 83.6584 227.341 82.9187 226.772 81.9766C226.204 81.0184 225.92 79.93 225.92 78.712C225.92 77.4939 226.204 76.4137 226.772 75.4718C227.341 74.5135 228.121 73.7747 229.111 73.255C230.118 72.7352 231.239 72.4757 232.474 72.4757ZM294.462 68.2598C295.469 68.2598 296.46 68.3906 297.435 68.6505C298.409 68.9103 299.245 69.2835 299.943 69.7706L299.14 71.7198C298.425 71.265 297.662 70.9237 296.85 70.6964C296.038 70.4527 295.242 70.3311 294.462 70.3311C293.082 70.3311 292.042 70.5827 291.344 71.086C290.662 71.5895 290.32 72.2395 290.32 73.0352C290.32 73.6198 290.515 74.0992 290.904 74.4727C291.294 74.83 291.773 75.1151 292.342 75.3262C292.926 75.5211 293.714 75.7317 294.705 75.9591C295.988 76.2677 297.02 76.5762 297.8 76.8848C298.579 77.1934 299.246 77.6645 299.798 78.2979C300.366 78.9314 300.65 79.7846 300.65 80.8565C300.65 81.7498 300.406 82.5704 299.919 83.3175C299.432 84.0482 298.693 84.6329 297.702 85.0714C296.711 85.4936 295.493 85.7051 294.048 85.7052C292.765 85.7052 291.522 85.5099 290.32 85.1202C289.135 84.7142 288.201 84.194 287.519 83.5606L288.42 81.6602C289.07 82.2448 289.898 82.7242 290.904 83.0977C291.928 83.4551 292.976 83.6339 294.048 83.6339C295.461 83.6338 296.516 83.3978 297.215 82.9268C297.913 82.4396 298.263 81.7979 298.263 81.002C298.263 80.4175 298.067 79.9462 297.678 79.5889C297.304 79.2155 296.833 78.9313 296.265 78.7364C295.712 78.5415 294.925 78.3228 293.901 78.0792C292.618 77.7706 291.579 77.462 290.783 77.1534C290.004 76.8448 289.329 76.3737 288.761 75.7403C288.208 75.0906 287.933 74.2211 287.933 73.1329C287.933 72.2234 288.168 71.4028 288.639 70.672C289.126 69.9411 289.858 69.3566 290.832 68.918C291.807 68.4796 293.016 68.2598 294.462 68.2598ZM253.42 72.5968H257.123V74.5216H253.42V81.5137C253.42 82.2122 253.591 82.7486 253.932 83.1221C254.289 83.4955 254.792 83.6826 255.441 83.6827C256.156 83.6827 256.766 83.4794 257.27 83.0733L258 84.755C257.659 85.0472 257.237 85.2742 256.733 85.4366C256.23 85.5828 255.71 85.6563 255.174 85.6563C253.874 85.6563 252.867 85.3069 252.152 84.6085C251.438 83.9101 251.081 82.9107 251.081 81.6114V74.5216H248.888V72.5968H251.081V69.7706H253.42V72.5968ZM265.53 72.4757C267.317 72.4757 268.681 72.9141 269.623 73.7911C270.581 74.6681 271.06 75.9753 271.061 77.713V85.5098H268.844V83.8048C268.454 84.4057 267.893 84.8686 267.162 85.1934C266.448 85.5019 265.595 85.6563 264.604 85.6563C263.159 85.6563 261.997 85.3068 261.12 84.6085C260.259 83.9101 259.829 82.9924 259.829 81.8555C259.829 80.7186 260.243 79.8082 261.071 79.1261C261.9 78.4277 263.216 78.0792 265.019 78.0792H268.722V77.6163C268.722 76.6095 268.429 75.8378 267.845 75.3018C267.26 74.7658 266.399 74.4971 265.262 74.4971C264.498 74.4972 263.751 74.627 263.021 74.8868C262.29 75.1304 261.672 75.4636 261.169 75.8858L260.194 74.1319C260.86 73.5959 261.656 73.1902 262.582 72.9141C263.508 72.6218 264.491 72.4757 265.53 72.4757ZM306.549 72.5968H310.252V74.5216H306.549V81.5137C306.549 82.2122 306.719 82.7486 307.061 83.1221C307.418 83.4955 307.921 83.6826 308.57 83.6827C309.285 83.6827 309.895 83.4794 310.398 83.0733L311.129 84.755C310.788 85.0472 310.366 85.2742 309.862 85.4366C309.359 85.5828 308.839 85.6563 308.303 85.6563C307.003 85.6563 305.996 85.3069 305.281 84.6085C304.567 83.9101 304.21 82.9107 304.21 81.6114V74.5216H302.017V72.5968H304.21V69.7706H306.549V72.5968ZM316.174 79.7598C316.174 81.0105 316.474 81.9607 317.075 82.6104C317.676 83.2438 318.537 83.5605 319.657 83.5606C320.892 83.5606 321.866 83.1867 322.581 82.4395C323.296 81.6924 323.653 80.6368 323.653 79.2725V72.5968H325.992V85.5098H323.775V83.5606C323.304 84.2265 322.679 84.7466 321.899 85.1202C321.136 85.4775 320.299 85.6563 319.39 85.6563C317.668 85.6563 316.312 85.1851 315.321 84.2432C314.331 83.285 313.835 81.8798 313.835 80.0284V72.5968H316.174V79.7598ZM342.627 85.5098H340.385V83.463C339.865 84.1775 339.208 84.7222 338.412 85.0958C337.616 85.4694 336.739 85.6563 335.78 85.6563C334.53 85.6563 333.409 85.3794 332.418 84.8272C331.427 84.275 330.648 83.5034 330.079 82.5128C329.527 81.5059 329.251 80.3529 329.251 79.0538C329.251 77.7545 329.527 76.609 330.079 75.6182C330.648 74.6276 331.427 73.856 332.418 73.3038C333.409 72.7516 334.53 72.4757 335.78 72.4757C336.706 72.4757 337.559 72.6535 338.339 73.0108C339.119 73.3519 339.768 73.8638 340.288 74.546V67.4317H342.627V85.5098ZM359.388 72.4757C360.671 72.4757 361.815 72.7598 362.822 73.3282C363.846 73.8804 364.641 74.66 365.21 75.6671C365.795 76.6578 366.087 77.7869 366.087 79.0538C366.087 80.3205 365.795 81.4571 365.21 82.4639C364.641 83.4547 363.846 84.2343 362.822 84.8028C361.815 85.3712 360.671 85.6563 359.388 85.6563C358.105 85.6563 356.951 85.3713 355.928 84.8028C354.905 84.2343 354.1 83.4547 353.516 82.4639C352.947 81.4571 352.663 80.3204 352.663 79.0538C352.663 77.787 352.947 76.6578 353.516 75.6671C354.1 74.6601 354.905 73.8804 355.928 73.3282C356.951 72.7597 358.105 72.4757 359.388 72.4757ZM207.709 68.4552C209.512 68.4552 211.112 68.8128 212.509 69.5274C213.905 70.242 214.986 71.2487 215.749 72.5479C216.529 73.8311 216.918 75.3095 216.918 76.9825C216.918 78.6555 216.529 80.1421 215.749 81.4415C214.986 82.7244 213.905 83.723 212.509 84.4376C211.112 85.1522 209.512 85.5098 207.709 85.5098H200.521V68.4552H207.709ZM222.647 85.5098H220.309V72.5968H222.647V85.5098ZM246.273 85.5098H243.935V72.5968H246.273V85.5098ZM277.728 85.5098H275.389V67.4317H277.728V85.5098ZM349.391 85.5098H347.052V72.5968H349.391V85.5098ZM265.115 79.7598C263.134 79.7599 262.144 80.4261 262.144 81.7579C262.144 82.4075 262.395 82.9195 262.898 83.293C263.402 83.6666 264.101 83.8526 264.994 83.8526C265.887 83.8526 266.659 83.6584 267.309 83.2686C267.958 82.8626 268.429 82.2935 268.722 81.5626V79.7598H265.115ZM335.976 74.5216C335.147 74.5216 334.4 74.7087 333.734 75.0821C333.085 75.4557 332.565 75.9921 332.175 76.6905C331.801 77.3726 331.614 78.1606 331.614 79.0538C331.614 79.947 331.801 80.7432 332.175 81.4415C332.565 82.1235 333.085 82.6592 333.734 83.0489C334.4 83.4224 335.147 83.6095 335.976 83.6095C336.788 83.6094 337.526 83.4224 338.192 83.0489C338.858 82.6591 339.378 82.1235 339.752 81.4415C340.125 80.7432 340.312 79.947 340.312 79.0538C340.312 78.1606 340.125 77.3726 339.752 76.6905C339.378 75.9921 338.858 75.4557 338.192 75.0821C337.527 74.7086 336.788 74.5216 335.976 74.5216ZM359.388 74.5216C358.559 74.5216 357.811 74.7085 357.146 75.0821C356.496 75.4557 355.977 75.9922 355.587 76.6905C355.213 77.3726 355.026 78.1605 355.026 79.0538C355.026 79.947 355.213 80.7432 355.587 81.4415C355.977 82.1233 356.496 82.6592 357.146 83.0489C357.811 83.4225 358.559 83.6095 359.388 83.6095C360.216 83.6094 360.955 83.4224 361.604 83.0489C362.27 82.6591 362.791 82.1235 363.164 81.4415C363.538 80.7432 363.724 79.947 363.724 79.0538C363.724 78.1606 363.537 77.3726 363.164 76.6905C362.79 75.9921 362.27 75.4557 361.604 75.0821C360.955 74.7086 360.216 74.5216 359.388 74.5216ZM202.958 83.3897H207.562C208.943 83.3897 210.153 83.122 211.192 82.586C212.248 82.05 213.06 81.303 213.629 80.3448C214.197 79.3703 214.481 78.2494 214.481 76.9825C214.481 75.7156 214.197 74.6029 213.629 73.6446C213.06 72.6701 212.248 71.915 211.192 71.379C210.153 70.843 208.943 70.5753 207.562 70.5753H202.958V83.3897ZM232.741 74.5216C231.426 74.5216 230.354 74.9119 229.525 75.6915C228.697 76.4548 228.283 77.4616 228.283 78.712C228.283 79.5241 228.47 80.2557 228.844 80.9053C229.234 81.5386 229.761 82.0344 230.427 82.3917C231.109 82.749 231.88 82.9268 232.741 82.9268C233.586 82.9268 234.342 82.749 235.008 82.3917C235.69 82.0344 236.217 81.5386 236.591 80.9053C236.981 80.2557 237.176 79.5241 237.176 78.712C237.176 77.4617 236.762 76.4548 235.934 75.6915C235.105 74.9118 234.041 74.5216 232.741 74.5216ZM151.976 10.1407L88.7412 73.6915L87.8955 72.8409L151.13 9.29109L151.976 10.1407ZM221.479 67.0665C221.933 67.0665 222.306 67.2128 222.599 67.505C222.907 67.7811 223.062 68.1305 223.062 68.5528C223.061 68.9913 222.907 69.3644 222.599 69.6729C222.306 69.9652 221.933 70.1123 221.479 70.1124C221.024 70.1124 220.642 69.9653 220.333 69.6729C220.041 69.3807 219.895 69.0237 219.895 68.6016C219.895 68.1794 220.041 67.8217 220.333 67.5294C220.642 67.2208 221.024 67.0665 221.479 67.0665ZM245.104 67.0665C245.559 67.0665 245.933 67.2126 246.226 67.505C246.534 67.781 246.688 68.1306 246.688 68.5528C246.688 68.9911 246.534 69.3644 246.226 69.6729C245.933 69.9653 245.559 70.1124 245.104 70.1124C244.65 70.1124 244.268 69.9653 243.959 69.6729C243.667 69.3807 243.521 69.0237 243.521 68.6016C243.521 68.1794 243.667 67.8217 243.959 67.5294C244.268 67.2208 244.65 67.0665 245.104 67.0665ZM348.222 67.0665C348.676 67.0665 349.05 67.2126 349.343 67.505C349.651 67.781 349.806 68.1306 349.806 68.5528C349.806 68.9911 349.651 69.3644 349.343 69.6729C349.05 69.9653 348.676 70.1124 348.222 70.1124C347.767 70.1124 347.385 69.9653 347.076 69.6729C346.784 69.3807 346.638 69.0237 346.638 68.6016C346.638 68.1794 346.784 67.8217 347.076 67.5294C347.385 67.2208 347.767 67.0665 348.222 67.0665ZM146.685 33.3702C146.685 42.405 145.093 49.8033 141.912 55.5636L152.587 67.7911H140.872L136.24 62.6856C131.643 66.6886 125.734 68.6905 118.515 68.6905C113.06 68.6904 108.663 67.207 105.324 64.2413C104.64 63.6214 104.025 62.9591 103.482 62.2559L110.134 55.4464C110.595 56.4378 111.273 57.3176 112.166 58.085C114.044 59.6427 116.518 60.4219 119.588 60.422C124.009 60.4219 127.679 59.1017 130.595 56.462L120.264 45.0733L126.859 38.3204L135.765 48.5216C137.321 44.4199 138.1 39.369 138.1 33.3702H146.685ZM176.91 11.3643C180.135 11.3643 182.943 11.8793 185.334 12.9102C187.725 13.9192 189.469 15.3677 190.565 17.254L185.695 22.0909C184.708 20.5995 183.447 19.4474 181.912 18.6358C180.399 17.8243 178.753 17.4181 176.977 17.418C172.743 17.418 169.342 18.9433 166.775 21.9923C164.231 25.0413 162.959 29.3741 162.959 34.9893C162.959 47.2296 168.245 53.3495 178.818 53.3497C181.999 53.3497 185.137 52.6922 188.229 51.3761L189.743 57.1671C185.926 58.6587 181.912 59.4043 177.7 59.4044C163.178 59.4044 155.917 51.3757 155.917 35.3184C155.917 27.7068 157.749 21.8163 161.412 17.6485C165.075 13.4589 170.242 11.3644 176.91 11.3643ZM212.315 23.2091C217.163 23.2091 220.914 24.789 223.568 27.9473C226.244 31.0841 227.583 35.5378 227.583 41.3067C227.583 47.0539 226.244 51.5073 223.568 54.6661C220.914 57.8248 217.163 59.4044 212.315 59.4044C207.49 59.4044 203.739 57.8248 201.062 54.6661C198.386 51.5073 197.048 47.0539 197.048 41.3067C197.048 35.5378 198.386 31.0841 201.062 27.9473C203.739 24.789 207.49 23.2091 212.315 23.2091ZM266.016 58.7462L259.764 59.0753L259.061 52.4288H258.382C258.162 54.6221 257.23 56.3332 255.585 57.5616C253.962 58.79 251.812 59.4043 249.136 59.4044C244.573 59.4044 241.106 57.9018 238.737 54.8966C236.39 51.8913 235.217 47.4707 235.217 41.6358C235.217 35.5818 236.39 30.9968 238.737 27.8819C241.106 24.7672 244.573 23.2091 249.136 23.2091C251.746 23.2091 253.863 23.8236 255.486 25.0518C257.131 26.2802 258.097 27.9923 258.382 30.1856H259.04V9.38972H266.016V58.7462ZM291.418 23.2091C296.134 23.2091 299.775 24.6359 302.342 27.4874C304.93 30.339 306.225 34.485 306.225 39.9249C306.225 41.5259 306.159 43.0177 306.027 44.3995H282.463C282.942 46.766 283.954 48.6745 285.495 50.1251C287.754 52.2308 290.957 53.2842 295.103 53.2843C296.55 53.2843 297.977 53.2073 299.381 53.0538C300.785 52.8783 302.211 52.6475 303.658 52.3624L304.514 58.4825C302.452 58.8773 300.565 59.1297 298.854 59.2393C297.143 59.349 295.629 59.4044 294.313 59.4044C288.369 59.4044 283.773 57.8465 280.526 54.7315C277.302 51.5947 275.689 47.098 275.689 41.2413C275.69 35.5381 277.061 31.1061 279.803 27.9473C282.545 24.789 286.417 23.2091 291.418 23.2091ZM112.464 3.86531C115.069 1.37652 118.751 0.348337 123.507 0.782303C126.047 1.01415 127.97 1.47411 129.274 2.16121C130.583 2.79192 131.602 3.31148 132.33 3.71883C133.058 4.1261 133.753 4.61519 134.413 5.1866C135.073 5.75805 135.608 6.20507 136.017 6.52644C136.829 7.22543 137.482 7.88215 137.976 8.49519L137.256 9.28133C133.046 4.92047 128.779 2.54225 124.455 2.14754C122.401 1.96012 120.606 2.25096 119.071 3.01961C117.595 3.73699 116.477 4.71489 115.72 5.95222C114.386 8.21632 113.634 10.3642 113.464 12.3936C113.07 17.0843 116.104 24.0925 122.565 33.4161L119.402 36.8516C116.468 32.7314 114.092 28.9742 112.276 25.5811C108.899 26.2387 106.187 28.0368 104.144 30.9747C102.1 33.9129 100.853 38.061 100.403 43.4171C100.016 48.0306 100.695 51.9838 102.439 55.2745L99.7412 58.2052C96.1203 54.5703 94.5955 49.3394 95.168 42.5137C95.641 36.8759 97.3369 32.5698 100.255 29.5977C103.232 26.5744 107.032 24.7894 111.652 24.2452C109.077 19.2381 107.917 15.2116 108.172 12.1671C108.427 9.1226 109.859 6.35451 112.464 3.86531ZM13.6123 8.29597L9.03027 8.70027V53.1759L13.6123 53.4454C13.6123 53.4903 13.5898 53.8276 13.5449 54.4561L0 54.5235L0.0673828 53.5802L3.57129 53.1085C4.02052 53.0635 4.29003 52.7716 4.37988 52.2325H4.44727V9.64363H4.37988C4.28997 9.05988 4.02043 8.74519 3.57129 8.70027L0.0673828 8.36336L0 7.35164L13.5449 7.28426C13.5449 7.32917 13.5674 7.6673 13.6123 8.29597ZM37.1123 20.5606C40.3915 20.5607 42.8847 21.212 44.5918 22.5147C45.3554 23.0987 46.0293 24.0197 46.6133 25.2774C47.2421 26.4902 47.5566 27.9504 47.5566 29.6573V53.1085L52.6113 53.4454C52.6113 53.4903 52.5888 53.8277 52.5439 54.4561L39.0664 54.5235C39.0664 54.1195 39.0889 53.8046 39.1338 53.5802L42.6377 53.1085C42.9971 53.0635 43.1768 52.7491 43.1768 52.1651V31.3419C43.1767 29.5452 42.9296 28.0176 42.4355 26.7598C41.9864 25.5022 41.4697 24.5811 40.8857 23.9971C40.3018 23.4133 39.5828 22.9639 38.7295 22.6495C37.7413 22.2902 36.7079 22.1105 35.6299 22.1104C32.9344 22.1554 29.9015 23.211 26.5322 25.2774V53.1085L31.5859 53.4454C31.5859 53.4903 31.5634 53.8276 31.5186 54.4561L17.9736 54.5235L18.041 53.5802L21.5449 53.1085C21.9492 53.0635 22.1514 52.7491 22.1514 52.1651V22.9864C22.0615 22.6273 21.9267 22.4473 21.7471 22.4473L17.6367 22.3126L17.7041 21.3692C20.5344 20.9649 22.4443 20.7628 23.4326 20.7628C25.2292 20.7629 26.2401 21.5492 26.4648 23.1212H26.5322V24.5362C30.216 22.0205 33.743 20.6954 37.1123 20.5606ZM62.6055 3.91512C63.6833 3.91512 64.4472 4.20749 64.8965 4.79109C65.3905 5.37488 65.6385 6.00425 65.6387 6.67781V53.1085L70.6924 53.4454C70.6924 53.4903 70.6699 53.8277 70.625 54.4561L57.0801 54.5235L57.1475 53.5802L60.6514 53.1085C60.9658 53.0635 61.168 52.8389 61.2578 52.4346V6.3409C61.2577 5.84726 61.1229 5.59969 60.8535 5.59969L56.7432 5.46492L56.8105 4.52156C59.6405 4.11729 61.5722 3.91515 62.6055 3.91512ZM87.2695 20.8302C87.2697 20.8767 87.2921 21.2142 87.3369 21.8409L79.6553 22.3126L68.334 34.6446L84.5742 53.1085L89.2236 53.4454C89.2236 53.4903 89.2011 53.8276 89.1562 54.4561H80.666L65.6387 36.5313L77.2285 23.1212C77.2284 22.5374 77.0488 22.2227 76.6895 22.1778L73.1855 21.7061C73.1407 21.4816 73.1182 21.1666 73.1182 20.7628L87.2695 20.8302ZM250.682 29.1319C247.874 29.132 245.747 30.1856 244.299 32.2911C242.851 34.3969 242.127 37.5121 242.127 41.6358C242.127 45.5403 242.851 48.4912 244.299 50.4874C245.747 52.4833 247.874 53.4815 250.682 53.4815C253.424 53.4815 255.496 52.5491 256.9 50.6846C258.326 48.8201 259.04 46.0887 259.04 42.4913V40.1221L259.031 39.4581C258.948 36.1871 258.237 33.6768 256.9 31.9288C255.496 30.0647 253.423 29.1319 250.682 29.1319ZM212.315 29.461C209.749 29.461 207.763 30.493 206.359 32.5548C204.978 34.5947 204.287 37.5123 204.287 41.3067C204.287 45.0796 204.978 47.9977 206.359 50.0596C207.763 52.1217 209.749 53.1524 212.315 53.1524C214.882 53.1524 216.856 52.1216 218.238 50.0596C219.642 47.9977 220.344 45.0796 220.344 41.3067C220.344 37.5123 219.642 34.5947 218.238 32.5548C216.856 30.493 214.882 29.461 212.315 29.461ZM291.483 29.3302C288.522 29.3302 286.218 30.3387 284.573 32.3565C283.232 34.0245 282.446 36.2627 282.213 39.0694H299.907C299.907 35.9327 299.161 33.5304 297.669 31.8634C296.177 30.1746 294.115 29.3302 291.483 29.3302Z" fill="black"/>
</svg>
