<svg 
    id="watermark" 
    viewBox="0 0 55 61" 
    fill="none" 
    xmlns="http://www.w3.org/2000/svg">
<path d="M53.7402 7.88831L0.707031 60.9215L0 60.2145L53.0332 7.18127L53.7402 7.88831ZM49.3037 27.275C49.3037 34.8149 47.969 40.9885 45.3008 45.7955L54.2539 55.9996H44.4287L40.5439 51.7389C36.6887 55.0793 31.7337 56.7496 25.6787 56.7496C21.1037 56.7496 17.4162 55.5117 14.6162 53.0367C14.042 52.5194 13.5267 51.9674 13.0713 51.3805L18.6494 45.6979C19.0365 46.5252 19.6043 47.2596 20.3535 47.9C21.9284 49.1999 24.0034 49.8492 26.5781 49.8492C30.2864 49.8492 33.364 48.7484 35.8096 46.5455L27.1455 37.0416L32.6768 31.4059L40.1455 39.9186C41.4509 36.4957 42.1035 32.2812 42.1035 27.275H49.3037ZM20.6035 2.65295C22.7887 0.57567 25.8758 -0.28153 29.8652 0.0806885C31.996 0.274171 33.6084 0.657627 34.7021 1.23108C35.7998 1.75746 36.6547 2.18996 37.2656 2.52991C37.8764 2.86978 38.4582 3.27865 39.0117 3.75549C39.5653 4.23242 40.0136 4.60546 40.3564 4.87366C41.0382 5.45712 41.5863 6.00453 42 6.51624L41.3965 7.17249C37.8659 3.53297 34.287 1.54869 30.6602 1.21936C28.9374 1.06294 27.4321 1.3052 26.1445 1.9469C24.9065 2.54557 23.9702 3.3616 23.335 4.39417C22.2163 6.28394 21.5852 8.07624 21.4424 9.77014C21.1124 13.6846 23.6573 19.5322 29.0762 27.3131L26.4229 30.1803C23.9615 26.7418 21.9692 23.6067 20.4463 20.775C17.6134 21.3238 15.3392 22.8239 13.625 25.276C11.9109 27.728 10.8661 31.1891 10.4893 35.6588C10.1647 39.5091 10.7331 42.8081 12.1963 45.5543L9.93359 47.9996C6.89653 44.9662 5.61846 40.6012 6.09863 34.9049C6.49527 30.1998 7.91688 26.6069 10.3643 24.1266C12.8611 21.6033 16.0482 20.1149 19.9238 19.6608C17.7636 15.4819 16.7898 12.1216 17.0039 9.58069C17.2181 7.03979 18.4183 4.73039 20.6035 2.65295Z" fill="currentColor"/>
</svg>
